<svg xmlns="http://www.w3.org/2000/svg" style="display:none">
<defs>

<!-- ===================== LOGO DE RESPALDO (se reemplaza por assets/img/logo.png si existe) ===================== -->
<symbol id="icon-logo" viewBox="0 0 100 100" fill="none" stroke="currentColor" stroke-width="1.6">
  <circle cx="50" cy="50" r="46"/>
  <circle cx="50" cy="50" r="39"/>
  <text x="50" y="62" text-anchor="middle" font-family="Fraunces, serif" font-style="italic" font-size="40" stroke="none" fill="currentColor">LH</text>
</symbol>

<!-- ===================== MEDALLON DE PORTADA ===================== -->
<symbol id="icon-medallion" viewBox="0 0 240 240" fill="none" stroke="currentColor" stroke-width="1">
  <circle cx="120" cy="120" r="112" stroke-width="1.2"/>
  <circle cx="120" cy="120" r="100" stroke-width=".7"/>
  <g stroke-width=".9">
    <g id="mLeaf">
      <path d="M120 20 C 128 34 128 46 120 58 C 112 46 112 34 120 20 Z"/>
      <path d="M120 20 C 120 32 120 46 120 58" stroke-width=".5"/>
      <path d="M106 44 C 110 40 116 39 120 42" stroke-width=".5"/>
      <path d="M134 44 C 130 40 124 39 120 42" stroke-width=".5"/>
    </g>
    <use href="#mLeaf" transform="rotate(45 120 120)"/>
    <use href="#mLeaf" transform="rotate(90 120 120)"/>
    <use href="#mLeaf" transform="rotate(135 120 120)"/>
    <use href="#mLeaf" transform="rotate(180 120 120)"/>
    <use href="#mLeaf" transform="rotate(225 120 120)"/>
    <use href="#mLeaf" transform="rotate(270 120 120)"/>
    <use href="#mLeaf" transform="rotate(315 120 120)"/>
  </g>
  <g stroke-width=".6" opacity=".8">
    <path d="M120 66 C 100 78 96 96 106 112 C 92 108 82 116 80 130" />
    <path d="M120 66 C 140 78 144 96 134 112 C 148 108 158 116 160 130" />
  </g>
  <circle cx="120" cy="120" r="46" stroke-width=".8"/>
  <text x="120" y="132" text-anchor="middle" font-family="Fraunces, serif" font-style="italic" font-size="30" letter-spacing="2" stroke="none" fill="currentColor">MENU</text>
</symbol>

<!-- ===================== SEPARADOR: refrescos (sifon, lata, vaso) ===================== -->
<symbol id="illus-refrescos" viewBox="0 0 260 120" fill="none" stroke="currentColor" stroke-width="1.3" stroke-linecap="round" stroke-linejoin="round">
  <!-- sifon -->
  <path d="M40 100 V54 C40 44 48 38 58 38 C68 38 76 44 76 54 V100 Z"/>
  <path d="M40 62 H76"/>
  <path d="M50 38 V26 C50 20 54 16 60 16" />
  <path d="M60 16 H70"/>
  <path d="M76 70 C90 68 96 74 92 82 C88 88 78 86 76 78"/>
  <!-- lata -->
  <rect x="112" y="46" width="30" height="54" rx="3"/>
  <ellipse cx="127" cy="46" rx="15" ry="4"/>
  <ellipse cx="127" cy="100" rx="15" ry="4"/>
  <path d="M120 60 H134 M120 70 H134 M120 80 H134" stroke-width=".8" opacity=".6"/>
  <!-- vaso con hielo y sorbete -->
  <path d="M172 52 L178 100 H206 L212 52 Z"/>
  <path d="M172 52 H212"/>
  <rect x="182" y="60" width="10" height="10" transform="rotate(18 187 65)" opacity=".7"/>
  <rect x="194" y="70" width="9" height="9" transform="rotate(-12 198 74)" opacity=".7"/>
  <path d="M200 40 L188 100" stroke-width="1.6"/>
</symbol>

<!-- ===================== SEPARADOR: brindis con copas de vino ===================== -->
<symbol id="illus-brindis" viewBox="0 0 260 120" fill="none" stroke="currentColor" stroke-width="1.3" stroke-linecap="round" stroke-linejoin="round">
  <g>
    <path d="M96 20 C82 20 74 30 78 44 C81 55 90 60 96 62 V92" transform="rotate(-14 96 56)"/>
    <path d="M78 44 H114" transform="rotate(-14 96 56)"/>
    <path d="M96 20 C110 20 118 30 114 44 C111 55 102 60 96 62" transform="rotate(-14 96 56)"/>
    <path d="M84 92 H108" transform="rotate(-14 96 56)"/>
    <path d="M82 40 C82 50 88 56 96 58 C104 56 110 50 110 42 C110 42 100 46 96 46 C92 46 82 40 82 40 Z" fill="currentColor" stroke="none" opacity=".85" transform="rotate(-14 96 56)"/>
  </g>
  <g>
    <path d="M164 20 C150 20 142 30 146 44 C149 55 158 60 164 62 V92" transform="rotate(14 164 56)"/>
    <path d="M146 44 H182" transform="rotate(14 164 56)"/>
    <path d="M164 20 C178 20 186 30 182 44 C179 55 170 60 164 62" transform="rotate(14 164 56)"/>
    <path d="M152 92 H176" transform="rotate(14 164 56)"/>
    <path d="M150 40 C150 50 156 56 164 58 C172 56 178 50 178 42 C178 42 168 46 164 46 C160 46 150 40 150 40 Z" fill="currentColor" stroke="none" opacity=".85" transform="rotate(14 164 56)"/>
  </g>
</symbol>

<!-- ===================== ICONOS DE CAPITULO (linea fina, 48x48) ===================== -->

<symbol id="icon-entradas" viewBox="0 0 48 48" fill="none" stroke="currentColor" stroke-width="1.5" stroke-linecap="round" stroke-linejoin="round">
  <!-- cuchillo -->
  <path d="M14 44 V24"/>
  <path d="M11 24 C11 13 12 7 14 4 C16 7 17 13 17 24 Z"/>
  <!-- tenedor, entero -->
  <path d="M29 6 V19 M33.5 6 V19 M38 6 V19"/>
  <path d="M29 19 C29 24 33 27 35.5 27 C38 27 42 24 42 19"/>
  <path d="M35.5 27 V44"/>
</symbol>

<symbol id="icon-empanadas" viewBox="0 0 48 48" fill="none" stroke="currentColor" stroke-width="1.5" stroke-linecap="round" stroke-linejoin="round">
  <!-- media luna con repulgue (borde trenzado) -->
  <path d="M6 28 C6 15 15 7 24 7 C33 7 42 15 42 28"/>
  <path d="M42 28 L37 33 L33 28 L29 33 L25 28 L21 33 L17 28 L13 33 L6 28 Z" stroke-linejoin="round"/>
</symbol>

<symbol id="icon-arroz" viewBox="0 0 48 48" fill="none" stroke="currentColor" stroke-width="1.5" stroke-linecap="round" stroke-linejoin="round">
  <ellipse cx="24" cy="30" rx="17" ry="9"/>
  <path d="M7 30 C7 36 15 40 24 40 C33 40 41 36 41 30"/>
  <path d="M17 24 C15 18 17 12 22 9 M24 24 C24 17 24 12 26 8 M31 24 C33 18 32 13 28 9" stroke-width="1.2"/>
</symbol>

<symbol id="icon-minutas" viewBox="0 0 48 48" fill="none" stroke="currentColor" stroke-width="1.5" stroke-linecap="round" stroke-linejoin="round">
  <!-- pedacito de carne, con marcas de parrilla -->
  <path d="M9 17 C9 12 14 9 20 9 C28 9 39 13 39 22 C39 31 30 39 21 39 C13 39 8 33 8 27 C8 23 9 20 9 17 Z"/>
  <path d="M14 16 L22 26 M20 13 L30 27 M27 15 L35 24" stroke-width="1.3"/>
</symbol>

<symbol id="icon-ensaladas" viewBox="0 0 48 48" fill="none" stroke="currentColor" stroke-width="1.5" stroke-linecap="round" stroke-linejoin="round">
  <!-- bowl -->
  <path d="M8 26 C8 26 12 38 24 38 C36 38 40 26 40 26 Z"/>
  <path d="M8 26 H40"/>
  <path d="M24 38 V42 M19 42 H29"/>
  <!-- hojas de verdura asomando del bowl -->
  <path d="M16 27 C13 23 14 17 18 13 C19 18 19 24 16 27 Z" stroke-width="1.3"/>
  <path d="M24 28 C21 23 21 14 24 10 C27 14 27 23 24 28 Z" stroke-width="1.3"/>
  <path d="M32 27 C35 23 34 17 30 13 C29 18 29 24 32 27 Z" stroke-width="1.3"/>
</symbol>

<symbol id="icon-parrilla" viewBox="0 0 48 48" fill="none" stroke="currentColor" stroke-width="1.5" stroke-linecap="round" stroke-linejoin="round">
  <!-- parrilla -->
  <path d="M6 34 H42" stroke-width="1.3"/>
  <path d="M10 34 V39 M17 34 V39 M24 34 V39 M31 34 V39 M38 34 V39" stroke-width="1.1"/>
  <!-- chorizo, con nudos -->
  <rect x="4" y="18" width="22" height="9" rx="4.5" stroke-width="1.4"/>
  <path d="M12 18 C11 20 11 25 12 27 M19 18 C18 20 18 25 19 27" stroke-width="1"/>
  <!-- pedazo de carne al lado -->
  <path d="M31 15 C27 15 25 19 27 23 C29 27 36 27 38 23 C40 19 35 14 31 15 Z" stroke-width="1.3"/>
  <path d="M29 18 L34 24" stroke-width="1"/>
</symbol>

<symbol id="icon-lomo" viewBox="0 0 48 48" fill="none" stroke="currentColor" stroke-width="1.5" stroke-linecap="round" stroke-linejoin="round">
  <!-- gorro de chef, especialidades de la casa -->
  <path d="M13 33 C9 33 7 29 9 25 C7 21 10 17 14 18 C15 13 21 11 24 15 C27 11 33 13 34 18 C38 17 41 21 39 25 C41 29 39 33 35 33 Z"/>
  <rect x="13" y="33" width="22" height="7" rx="1"/>
</symbol>

<symbol id="icon-supremas" viewBox="0 0 48 48" fill="none" stroke="currentColor" stroke-width="1.5" stroke-linecap="round" stroke-linejoin="round">
  <!-- milanesa, borde ondulado tipo pan rallado -->
  <path d="M24 9 C18 8 12 11 10 16 C7 19 9 23 8 27 C7 31 11 33 13 37 C16 41 22 41 26 39 C31 41 37 39 38 34 C41 31 39 27 40 23 C41 18 37 15 32 15 C30 10 27 10 24 9 Z"/>
  <circle cx="18" cy="20" r="1" fill="currentColor" stroke="none"/>
  <circle cx="25" cy="16" r="1" fill="currentColor" stroke="none"/>
  <circle cx="31" cy="21" r="1" fill="currentColor" stroke="none"/>
  <circle cx="15" cy="28" r="1" fill="currentColor" stroke="none"/>
  <circle cx="23" cy="30" r="1" fill="currentColor" stroke="none"/>
  <circle cx="32" cy="29" r="1" fill="currentColor" stroke="none"/>
</symbol>

<symbol id="icon-tortillas" viewBox="0 0 48 48" fill="none" stroke="currentColor" stroke-width="1.5" stroke-linecap="round" stroke-linejoin="round">
  <ellipse cx="24" cy="26" rx="18" ry="10"/>
  <path d="M9 21 C9 21 24 13 39 21" stroke-width="1.2"/>
  <path d="M14 30 h5 M22 32 h5 M30 29 h5" stroke-width="1.1" opacity=".7"/>
</symbol>

<symbol id="icon-milanesas" viewBox="0 0 48 48" fill="none" stroke="currentColor" stroke-width="1.5" stroke-linecap="round" stroke-linejoin="round">
  <path d="M12 14 C10 22 10 30 14 36 C22 40 30 38 36 32 C40 26 38 16 32 12 C24 8 16 8 12 14 Z"/>
  <path d="M17 18 l2 2 M23 16 l2 2 M29 17 l2 2 M15 24 l2 2 M22 23 l2 2 M29 24 l2 2 M19 30 l2 2 M26 29 l2 2" stroke-width="1"/>
</symbol>

<symbol id="icon-pastas" viewBox="0 0 48 48" fill="none" stroke="currentColor" stroke-width="1.5" stroke-linecap="round" stroke-linejoin="round">
  <!-- plato, visto desde arriba -->
  <circle cx="24" cy="24" r="17"/>
  <!-- nido de fideos: tiras onduladas superpuestas -->
  <path d="M14 27 C14 21 18 18 22 21 C26 24 30 21 28 17" stroke-width="1.2"/>
  <path d="M16 22 C18 18 23 18 24 22 C25 26 30 25 31 21" stroke-width="1.2"/>
  <path d="M17 31 C21 29 25 31 26 27 C27 24 31 24 33 27" stroke-width="1.2"/>
</symbol>

<symbol id="icon-salsas" viewBox="0 0 48 48" fill="none" stroke="currentColor" stroke-width="1.5" stroke-linecap="round" stroke-linejoin="round">
  <path d="M20 8 V16 M28 8 V16 M18 16 H30 L28 24 H20 Z"/>
  <path d="M22 24 L18 40 H30 L26 24" stroke-linejoin="round"/>
</symbol>

<symbol id="icon-pollos" viewBox="0 0 48 48" fill="none" stroke="currentColor" stroke-width="1.5" stroke-linecap="round" stroke-linejoin="round">
  <path d="M20 40 C14 34 12 26 16 18 C19 12 26 9 31 13 C27 13 24 16 24 20 C30 18 34 21 34 26 C34 26 29 24 27 26 C33 27 35 32 32 37 C28 33 24 34 22 37 Z"/>
</symbol>

<symbol id="icon-pescados" viewBox="0 0 48 48" fill="none" stroke="currentColor" stroke-width="1.5" stroke-linecap="round" stroke-linejoin="round">
  <path d="M8 24 C14 14 26 12 34 18 C40 22 40 26 34 30 C26 36 14 34 8 24 Z"/>
  <path d="M34 18 L42 12 M34 30 L42 36 M34 24 H42" stroke-width="1.2"/>
  <circle cx="15" cy="22" r="1.4" fill="currentColor" stroke="none"/>
</symbol>

<symbol id="icon-postres" viewBox="0 0 48 48" fill="none" stroke="currentColor" stroke-width="1.5" stroke-linecap="round" stroke-linejoin="round">
  <!-- copa (coupe) con frutillas adentro -->
  <path d="M13 13 C13 13 15 25 24 25 C33 25 35 13 35 13 Z"/>
  <path d="M24 25 V35 M18 35 H30"/>
  <!-- frutillas, dentro de la copa -->
  <path d="M20 15 C17 15 16 18 18 20.5 C19 22 20 22.5 20 22.5 C20 22.5 21 22 22 20.5 C24 18 23 15 20 15 Z"/>
  <path d="M18.5 14.5 C19 13.5 20.5 13.5 21 14.5" stroke-width="1"/>
  <path d="M28 13 C25 13 24 16 26 18.5 C27 20 28 20.5 28 20.5 C28 20.5 29 20 30 18.5 C32 16 31 13 28 13 Z"/>
  <path d="M26.5 12.5 C27 11.5 28.5 11.5 29 12.5" stroke-width="1"/>
</symbol>

<symbol id="icon-cafeteria" viewBox="0 0 48 48" fill="none" stroke="currentColor" stroke-width="1.5" stroke-linecap="round" stroke-linejoin="round">
  <path d="M12 18 H32 V28 C32 34 27 38 22 38 C17 38 12 34 12 28 Z"/>
  <path d="M32 20 C38 20 38 30 32 30" />
  <path d="M17 12 C17 15 20 15 20 18 M24 12 C24 15 27 15 27 18" stroke-width="1.1"/>
</symbol>

<symbol id="icon-bebidas" viewBox="0 0 48 48" fill="none" stroke="currentColor" stroke-width="1.5" stroke-linecap="round" stroke-linejoin="round">
  <!-- botellita -->
  <rect x="21" y="6" width="6" height="4" rx="1"/>
  <path d="M22 10 V16 C17 20 15 25 15 29 C15 35 19 39 24 39 C29 39 33 35 33 29 C33 25 31 20 26 16 V10 Z"/>
  <path d="M15.5 27 H32.5" stroke-width="1" opacity=".6"/>
</symbol>

<symbol id="icon-cervezas" viewBox="0 0 48 48" fill="none" stroke="currentColor" stroke-width="1.5" stroke-linecap="round" stroke-linejoin="round">
  <!-- jarra tipo pinta, con espuma y burbujas -->
  <path d="M15 18 L13 37 C13 39 15 41 18 41 H27 C30 41 32 39 31 37 L29 18 Z"/>
  <path d="M29 21 H34 C36 21 37 22 37 24 V29 C37 31 36 32 34 32 H28.5"/>
  <path d="M16 18 C14 14 16 9 22 9 C27 9 28 13 27 18" stroke-width="1.1"/>
  <circle cx="20" cy="13" r=".9" fill="currentColor" stroke="none"/>
  <circle cx="24.5" cy="11.5" r=".9" fill="currentColor" stroke="none"/>
</symbol>

<symbol id="icon-helados" viewBox="0 0 48 48" fill="none" stroke="currentColor" stroke-width="1.5" stroke-linecap="round" stroke-linejoin="round">
  <circle cx="24" cy="16" r="8"/>
  <path d="M18 20 L24 40 L30 20" stroke-linejoin="round"/>
  <path d="M16 16 H32" stroke-width="1.1" opacity=".6"/>
</symbol>

<symbol id="icon-vinos" viewBox="0 0 48 48" fill="none" stroke="currentColor" stroke-width="1.5" stroke-linecap="round" stroke-linejoin="round">
  <path d="M15 8 H33 L30 22 C30 28 26 30 24 30 C22 30 18 28 18 22 Z"/>
  <path d="M24 30 V40 M17 40 H31" />
  <path d="M18 14 H30" stroke-width="1.1" opacity=".6"/>
</symbol>

</defs>
</svg>
